<?xml version="1.0" encoding="UTF-8"?>
<svg id="Layer_2" data-name="Layer 2" xmlns="http://www.w3.org/2000/svg" width="350" height="100" viewBox="0 0 350 100">
  <g id="Layer_1-2" data-name="Layer 1-2">
    <g>
      <path d="M55.2,98.3c-.6,0-1.3-.2-1.8-.5l-25.8-14.9c-1.1-.7-1.8-1.9-1.8-3.2V20.2c0-1.3.7-2.5,1.8-3.2,1.1-.7,2.5-.7,3.6,0l25.8,15c1.1.7,1.8,1.9,1.8,3.2v59.5c0,1.3-.7,2.5-1.8,3.2-.6.2-1.2.4-1.8.4h0ZM33.1,77.6l18.5,10.7v-51.1l-18.5-10.6v51h0Z" style="fill: #ffc72c;"/>
      <path d="M29.4,53.6c-.6,0-1.3-.2-1.8-.5L1.8,38.3c-1.1-.7-1.8-1.9-1.8-3.2s.7-2.5,1.8-3.2L53.4,2.2c1.1-.7,2.5-.7,3.6,0l25.8,14.9c1.1.7,1.8,1.9,1.8,3.2s-.7,2.5-1.8,3.2l-51.6,29.7c-.5.3-1.2.4-1.8.4h0ZM10.9,35.1l18.5,10.7,44.2-25.5-18.4-10.7L10.9,35.1Z" style="fill: #ffc72c;"/>
      <g>
        <path d="M84.7,44.1v-8.2h36.3v8.2h-13.3v36.1h-9.7v-36.1h-13.3Z" style="fill: #1d4ad7;"/>
        <path d="M127.7,48.2v6h0c.4-1,1-1.9,1.7-2.8.7-.8,1.5-1.6,2.4-2.2.9-.6,1.9-1.1,2.9-1.4,1-.3,2.1-.5,3.2-.5s1.2,0,1.9.3v8.2c-.4,0-.9-.2-1.5-.2-.6,0-1.1,0-1.7,0-1.6,0-3,.3-4.1.8s-2,1.3-2.7,2.2-1.2,2-1.5,3.3c-.3,1.2-.4,2.6-.4,4v14.5h-8.8v-32.1h8.5Z" style="fill: #1d4ad7;"/>
        <path d="M142.9,58c.1-2.1.6-3.8,1.6-5.2.9-1.4,2.1-2.5,3.5-3.3s3-1.4,4.7-1.8c1.8-.4,3.5-.5,5.3-.5s3.2,0,4.9.3,3.2.7,4.5,1.3c1.4.7,2.5,1.6,3.4,2.8s1.3,2.7,1.3,4.7v16.7c0,1.4.1,2.8.2,4.2.2,1.3.5,2.3.9,3h-8.9c-.2-.5-.3-1-.4-1.5-.1-.5-.2-1-.2-1.6-1.4,1.4-3.1,2.5-5,3-1.9.6-3.8.9-5.8.9s-3-.2-4.3-.6-2.5-1-3.5-1.7c-1-.8-1.8-1.8-2.3-3-.6-1.2-.8-2.6-.8-4.3s.3-3.3,1-4.5,1.5-2.1,2.5-2.8c1-.7,2.2-1.2,3.5-1.6,1.3-.4,2.6-.6,3.9-.8s2.6-.4,3.9-.5c1.3,0,2.4-.3,3.4-.6s1.8-.6,2.4-1.1c.6-.5.8-1.2.8-2.1s-.2-1.7-.5-2.3-.7-1-1.2-1.3-1.1-.5-1.8-.6-1.4-.2-2.2-.2c-1.7,0-3.1.4-4.1,1.1-1,.7-1.6,2-1.7,3.7l-9,.2h0ZM163.2,64.5c-.4.3-.8.6-1.4.8-.6.2-1.2.3-1.8.5-.6,0-1.3.2-2,.3-.7,0-1.4.2-2.1.3-.7,0-1.3.3-2,.5-.6.2-1.2.5-1.7.8-.5.4-.9.8-1.1,1.3-.3.5-.4,1.2-.4,2s.1,1.4.4,2c.3.5.7,1,1.2,1.3s1.1.5,1.7.7c.7,0,1.3.2,2,.2,1.7,0,3.1-.3,4-.9s1.7-1.3,2.1-2.1c.5-.8.7-1.6.8-2.5.1-.8.2-1.5.2-2v-3.2h.1Z" style="fill: #1d4ad7;"/>
        <path d="M200.9,76.2c-1,1.7-2.4,3-4.1,3.8-1.7.8-3.6,1.1-5.7,1.1s-4.5-.5-6.3-1.4-3.3-2.2-4.5-3.8c-1.2-1.6-2.1-3.4-2.7-5.5-.6-2.1-.9-4.2-.9-6.5s.3-4.2.9-6.2c.6-2,1.5-3.8,2.7-5.3s2.7-2.8,4.4-3.7c1.8-.9,3.8-1.4,6.2-1.4s3.7.4,5.4,1.2,3.1,2,4.1,3.6h.1v-16.2h8.8v44.3h-8.3v-4.1h-.1ZM200.5,60.3c-.2-1.2-.7-2.3-1.3-3.2s-1.4-1.7-2.3-2.3c-1-.6-2.2-.9-3.6-.9s-2.7.3-3.7.9c-1,.6-1.8,1.3-2.4,2.3-.6,1-1,2-1.3,3.3-.3,1.2-.4,2.5-.4,3.8s.1,2.5.4,3.7c.3,1.2.8,2.3,1.4,3.3s1.4,1.8,2.4,2.4,2.1.9,3.5.9,2.7-.3,3.6-.9c1-.6,1.7-1.4,2.3-2.3s1-2.1,1.2-3.3c.2-1.2.4-2.5.4-3.8.2-1.4.1-2.7-.2-3.9h0Z" style="fill: #1d4ad7;"/>
        <path d="M225.1,72.6c1.3,1.3,3.2,1.9,5.7,1.9s3.3-.4,4.6-1.3,2.1-1.8,2.4-2.8h7.8c-1.2,3.8-3.1,6.6-5.7,8.3-2.6,1.7-5.7,2.5-9.3,2.5s-4.8-.4-6.8-1.2c-2-.8-3.7-2-5.2-3.4-1.4-1.5-2.5-3.3-3.3-5.3-.8-2.1-1.1-4.3-1.1-6.8s.4-4.6,1.2-6.7c.8-2.1,1.9-3.9,3.4-5.4,1.4-1.5,3.2-2.7,5.2-3.6,2-.9,4.2-1.3,6.7-1.3s5.1.5,7.1,1.6,3.7,2.5,5,4.3,2.2,3.8,2.8,6.1.8,4.7.6,7.1h-23.2c.1,2.6.8,4.7,2.1,6h0ZM235.1,55.7c-1.1-1.2-2.7-1.7-4.8-1.7s-2.6.2-3.5.7-1.7,1.1-2.2,1.8c-.6.7-1,1.4-1.2,2.2s-.4,1.5-.4,2.1h14.3c-.4-2.3-1.2-4-2.2-5.1h0Z" style="fill: #1d4ad7;"/>
        <path d="M259.8,35.9v44.3h-8.8v-44.3h8.8Z" style="fill: #1d4ad7;"/>
        <path d="M275.1,48.2v32.1h-8.8v-32.1h8.8Z" style="fill: #1d4ad7;"/>
        <path d="M289.9,48.2v4.5h.2c1.1-1.9,2.6-3.2,4.3-4.1,1.8-.8,3.6-1.3,5.5-1.3s4.3.3,5.8,1c1.5.6,2.7,1.5,3.6,2.7.9,1.1,1.5,2.5,1.8,4.2.4,1.6.5,3.4.5,5.4v19.7h-8.8v-18.2c0-2.6-.4-4.6-1.2-5.9-.8-1.3-2.3-2-4.4-2s-4.1.7-5.2,2.1c-1.1,1.4-1.6,3.8-1.6,7v16.8h-8.8v-31.9h8.3Z" style="fill: #1d4ad7;"/>
        <path d="M327.1,35.9v23.8l11.1-11.5h10.4l-12.1,11.8,13.5,20.3h-10.7l-8.8-14.3-3.4,3.3v11.1h-8.8v-44.5h8.8Z" style="fill: #1d4ad7;"/>
        <rect x="266.3" y="35.9" width="8.8" height="8.8" style="fill: #1d4ad7;"/>
      </g>
    </g>
  </g>
</svg>