<svg id="Layer_1" data-name="Layer 1" xmlns="http://www.w3.org/2000/svg" width="1024" height="1024" viewBox="0 0 1024 1024">
      <rect y="0" width="1024" height="1024" rx="100" ry="100" fill="#1570ef" />
      <path d="M652.4,381.6l-93.2-53.8c-4.1-2.4-9.1-2.4-13.2,0l-186.4,107.6c-4.1,2.4-6.6,6.7-6.6,11.4s2.5,9.1,6.6,11.4l86.6,50v100c0,4.7,2.5,9.1,6.6,11.4l93.2,53.8c2,1.2,4.3,1.8,6.6,1.8s4.6-.6,6.6-1.8c4.1-2.4,6.6-6.7,6.6-11.4v-207.6l86.6-50c4.1-2.4,6.6-6.7,6.6-11.4s-2.5-9.1-6.6-11.4h0ZM472.6,415.9l53.6,31-53.6,31v-61.9ZM392.6,446.8l53.6-31v61.9l-53.6-31ZM539.4,639.2l-66.8-38.6v-92.4l66.8-38.6v169.5h0ZM552.6,431.6l-66.8-38.6,66.8-38.6,66.8,38.6-66.8,38.6Z" fill="#ffc72c" />
      <path d="M512,895.7l-17.4-13.7c-3.5-2.7-85.3-67.6-143.6-125.1-52.2-51.6-90.5-107.9-113.9-167.5-16.7-42.7-21.2-76.8-21.2-90.1,0-49.3.6-99.7,1-140.2.2-16.1.4-31.1.5-44.4v-16c.1,0,294.5-170.5,294.5-170.5l294.3,170.5v16c.3,13.3.4,28.3.6,44.5.5,40.4,1,90.7,1,140s-4.5,47.4-21.2,90.1c-23.3,59.6-61.6,115.9-113.9,167.4-58.3,57.5-140.1,122.4-143.6,125.1l-17.4,13.7ZM273.4,331.2c0,9-.2,18.5-.3,28.6-.5,42.4-1,90.5-1,139.5,0,1,3.7,104.5,118.4,217.7,40.4,39.9,94.3,84.8,121.6,107,27.3-22.2,81.2-67.1,121.6-107,114.7-113.2,118.4-216.7,118.4-217.7,0-48.9-.6-97-1-139.4-.1-10.1-.2-19.7-.3-28.7l-238.6-138.2-238.6,138.2Z" fill="#fff" />
    </svg>