<?xml version="1.0" encoding="UTF-8" standalone="no"?>
<!-- Created with Inkscape (http://www.inkscape.org/) -->

<svg
   version="1.1"
   id="svg708"
   xml:space="preserve"
   width="32"
   height="32"
   viewBox="0 0 32 32"
   xmlns="http://www.w3.org/2000/svg"
   xmlns:svg="http://www.w3.org/2000/svg"><defs
     id="defs712"><clipPath
       clipPathUnits="userSpaceOnUse"
       id="clipPath722"><path
         d="M 0,24 H 24 V 0 H 0 Z"
         id="path720" /></clipPath></defs><g
     id="g714"
     transform="matrix(1.3333333,0,0,-1.3333333,0,32)"><g
       id="g716"><g
         id="g718"
         clip-path="url(#clipPath722)"><g
           id="g724"
           transform="translate(4,15.5)"><path
             d="M 0,0 C 0,1.933 1.567,3.5 3.5,3.5 5.433,3.5 7,1.933 7,0 7,-1.933 5.433,-3.5 3.5,-3.5 1.567,-3.5 0,-1.933 0,0 Z"
             style="fill:none;stroke:#000000;stroke-width:2;stroke-linecap:butt;stroke-linejoin:miter;stroke-miterlimit:10;stroke-dasharray:none;stroke-opacity:1"
             id="path726" /></g><g
           id="g728"
           transform="translate(1)"><path
             d="m 0,0 v 4 c 0,2.209 1.791,4 4,4 h 5 c 2.209,0 4,-1.791 4,-4 V 0"
             style="fill:none;stroke:#000000;stroke-width:2;stroke-linecap:butt;stroke-linejoin:miter;stroke-miterlimit:10;stroke-dasharray:none;stroke-opacity:1"
             id="path730" /></g><g
           id="g732"
           transform="translate(14,19.5)"><path
             d="M 0,0 C 0,1.933 1.567,3.5 3.5,3.5 5.433,3.5 7,1.933 7,0 7,-1.933 5.433,-3.5 3.5,-3.5 1.567,-3.5 0,-1.933 0,0 Z"
             style="fill:none;stroke:#000000;stroke-width:2;stroke-linecap:butt;stroke-linejoin:miter;stroke-miterlimit:10;stroke-dasharray:none;stroke-opacity:1"
             id="path734" /></g><g
           id="g736"
           transform="translate(15,12)"><path
             d="M 0,0 H 4 C 6.209,0 8,-1.791 8,-4 V -8"
             style="fill:none;stroke:#000000;stroke-width:2;stroke-linecap:butt;stroke-linejoin:miter;stroke-miterlimit:10;stroke-dasharray:none;stroke-opacity:1"
             id="path738" /></g></g></g></g></svg>
