<?xml version="1.0" encoding="UTF-8"?>
<svg id="Design" xmlns="http://www.w3.org/2000/svg" width="500" height="464" viewBox="0 0 464 500">
  <g>
    <path d="M27.641,300.37c-9.543,0-18.824-4.951-23.937-13.81-7.625-13.205-3.1-30.092,10.106-37.716L296.887,85.424c13.208-7.624,30.095-3.099,37.716,10.108,7.625,13.205,3.1,30.092-10.106,37.716L41.42,296.667c-4.349,2.51-9.096,3.703-13.779,3.703Z" style="fill: #0049dc;"/>
    <path d="M310.666,463.807c-4.685,0-9.431-1.193-13.779-3.704l-141.539-81.718c-8.542-4.932-13.805-14.047-13.805-23.911V27.616C141.543,12.367,153.905.006,169.153.006s27.61,12.361,27.61,27.61v310.917l127.733,73.748c13.205,7.624,17.731,24.51,10.106,37.716-5.114,8.857-14.394,13.809-23.937,13.809Z" style="fill: #ffc800;"/>
    <path d="M169.153,382.084c-4.767,0-9.534-1.233-13.805-3.699L13.81,296.666c-13.205-7.624-17.731-24.51-10.106-37.716,7.625-13.209,24.508-17.733,37.716-10.106l127.733,73.748,227.857-131.54-100.123-57.807c-13.205-7.624-17.731-24.51-10.106-37.716,7.625-13.206,24.506-17.731,37.716-10.106l141.12,81.475c4.245,2.347,7.925,5.843,10.529,10.352,3.371,5.843,4.368,12.407,3.283,18.57-.261,1.487-.641,2.943-1.135,4.354-.002.003-.002.006-.004.01s-.002.008-.004.011c-2.071,5.911-6.152,11.149-11.941,14.59-.104.061-.207.122-.311.181l-283.075,163.418c-4.271,2.465-9.038,3.698-13.805,3.698Z" style="fill: #0049dc;"/>
    <path d="M310.692,463.802c-15.248,0-27.61-12.361-27.61-27.61V125.276l-127.733-73.749c-13.205-7.624-17.731-24.51-10.106-37.716,7.625-13.208,24.506-17.733,37.716-10.106l141.539,81.719c8.542,4.932,13.805,14.047,13.805,23.911v326.856c0,15.249-12.362,27.61-27.61,27.61Z" style="fill: #ffc800;"/>
  </g>
</svg>